# xmcd
#
# Track frame offsets: 
#        150
#        18755
#        39177
#        56237
#        78452
#        98462
#        114900
#        131900
#        153530
#        172857
#        197627
#        222495
#
# Disc length: 3190 seconds
#
# Revision: 15
# Processed by: cddbd v1.5.2PL0 Copyright (c) Steve Scherf et al.
# Submitted via: ExactAudioCopyFreeDBPlugin 1.0
#
DISCID=950c740c
DTITLE=U2 - All That You Can't Leave Behind
DYEAR=2000
DGENRE=Rock
TTITLE0=Beautiful Day
TTITLE1=Stuck In A Moment You Can't Get Out Of
TTITLE2=Elevation
TTITLE3=Walk On
TTITLE4=Kite
TTITLE5=In A Little While
TTITLE6=Wild Honey
TTITLE7=Peace On Earth
TTITLE8=When I Look At The World
TTITLE9=New York
TTITLE10=Grace
TTITLE11=The Ground Beneath Her Feet
EXTD=YEAR: 2000
EXTT0=
EXTT1=
EXTT2=
EXTT3=
EXTT4=
EXTT5=
EXTT6=
EXTT7=
EXTT8=
EXTT9=
EXTT10=
EXTT11=
PLAYORDER=
